if (_typeface_js && _typeface_js.loadFace) _typeface_js.loadFace({"glyphs":{"0":{"ha":1389,"x_min":0,"x_max":1111,"o":"m 833 278 l 278 278 l 278 1389 l 833 1389 l 833 278 m 0 0 l 1111 0 l 1111 1667 l 0 1667 l 0 0 "},"1":{"ha":555,"x_min":0,"x_max":278,"o":"m 0 0 l 278 0 l 278 1667 l 0 1667 l 0 0 "},"2":{"ha":1389,"x_min":0,"x_max":1111,"o":"m 0 0 l 1111 0 l 1111 278 l 278 278 l 278 555 l 0 555 l 0 0 m 278 555 l 555 555 l 555 833 l 278 833 l 278 555 m 555 833 l 833 833 l 833 1111 l 555 1111 l 555 833 m 833 1111 l 1111 1111 l 1111 1389 l 833 1389 l 833 1111 m 0 1389 l 833 1389 l 833 1667 l 0 1667 l 0 1389 "},"3":{"ha":1389,"x_min":0,"x_max":1111,"o":"m 0 0 l 833 0 l 833 278 l 0 278 l 0 0 m 833 278 l 1111 278 l 1111 833 l 833 833 l 833 278 m 0 833 l 833 833 l 833 1111 l 0 1111 l 0 833 m 833 1111 l 1111 1111 l 1111 1389 l 833 1389 l 833 1111 m 0 1389 l 833 1389 l 833 1667 l 0 1667 l 0 1389 "},"4":{"ha":1389,"x_min":0,"x_max":1111,"o":"m 833 0 l 1111 0 l 1111 1667 l 833 1667 l 833 1111 l 278 1111 l 278 1667 l 0 1667 l 0 833 l 833 833 l 833 0 "},"5":{"ha":1389,"x_min":0,"x_max":1111,"o":"m 0 0 l 833 0 l 833 278 l 0 278 l 0 0 m 833 278 l 1111 278 l 1111 833 l 833 833 l 833 278 m 0 833 l 833 833 l 833 1111 l 278 1111 l 278 1389 l 1111 1389 l 1111 1667 l 0 1667 l 0 833 "},"6":{"ha":1389,"x_min":0,"x_max":1111,"o":"m 278 0 l 833 0 l 833 278 l 278 278 l 278 0 m 833 278 l 1111 278 l 1111 833 l 833 833 l 833 278 m 0 278 l 278 278 l 278 833 l 833 833 l 833 1111 l 278 1111 l 278 1389 l 0 1389 l 0 278 m 278 1389 l 1111 1389 l 1111 1667 l 278 1667 l 278 1389 "},"7":{"ha":1389,"x_min":0,"x_max":1111,"o":"m 0 0 l 278 0 l 278 278 l 0 278 l 0 0 m 278 278 l 555 278 l 555 555 l 278 555 l 278 278 m 555 555 l 833 555 l 833 833 l 555 833 l 555 555 m 833 833 l 1111 833 l 1111 1667 l 0 1667 l 0 1389 l 833 1389 l 833 833 "},"8":{"ha":1389,"x_min":0,"x_max":1111,"o":"m 278 0 l 833 0 l 833 278 l 278 278 l 278 0 m 0 278 l 278 278 l 278 833 l 0 833 l 0 278 m 833 278 l 1111 278 l 1111 833 l 833 833 l 833 278 m 278 833 l 833 833 l 833 1111 l 278 1111 l 278 833 m 0 1111 l 278 1111 l 278 1389 l 0 1389 l 0 1111 m 833 1111 l 1111 1111 l 1111 1389 l 833 1389 l 833 1111 m 278 1389 l 833 1389 l 833 1667 l 278 1667 l 278 1389 "},"9":{"ha":1389,"x_min":0,"x_max":1111,"o":"m 833 1111 l 278 1111 l 278 1389 l 833 1389 l 833 1111 m 0 0 l 1111 0 l 1111 1667 l 0 1667 l 0 833 l 833 833 l 833 278 l 0 278 l 0 0 "}," ":{"ha":555,"x_min":0,"x_max":0,"o":""},"!":{"ha":555,"x_min":0,"x_max":278,"o":"m 0 0 l 278 0 l 278 278 l 0 278 l 0 0 m 0 555 l 278 555 l 278 1667 l 0 1667 l 0 555 "},"#":{"ha":1667,"x_min":0,"x_max":1389,"o":"m 833 555 l 555 555 l 555 833 l 833 833 l 833 555 m 278 0 l 555 0 l 555 278 l 833 278 l 833 0 l 1111 0 l 1111 278 l 1389 278 l 1389 555 l 1111 555 l 1111 833 l 1389 833 l 1389 1111 l 1111 1111 l 1111 1389 l 833 1389 l 833 1111 l 555 1111 l 555 1389 l 278 1389 l 278 1111 l 0 1111 l 0 833 l 278 833 l 278 555 l 0 555 l 0 278 l 278 278 l 278 0 "},"$":{"ha":1667,"x_min":0,"x_max":1389,"o":"m 1111 555 l 833 555 l 833 833 l 1111 833 l 1111 555 m 555 1111 l 278 1111 l 278 1389 l 555 1389 l 555 1111 m 555 0 l 833 0 l 833 278 l 1389 278 l 1389 1111 l 833 1111 l 833 1389 l 1389 1389 l 1389 1667 l 833 1667 l 833 1944 l 555 1944 l 555 1667 l 0 1667 l 0 833 l 555 833 l 555 555 l 0 555 l 0 278 l 555 278 l 555 0 "},"+":{"ha":1111,"x_min":0,"x_max":833,"o":"m 278 555 l 555 555 l 555 833 l 833 833 l 833 1111 l 555 1111 l 555 1389 l 278 1389 l 278 1111 l 0 1111 l 0 833 l 278 833 l 278 555 "},",":{"ha":555,"x_min":0,"x_max":278,"o":"m 0 -278 l 278 -278 l 278 278 l 0 278 l 0 -278 "},"-":{"ha":1111,"x_min":0,"x_max":833,"o":"m 0 833 l 833 833 l 833 1111 l 0 1111 l 0 833 "},".":{"ha":555,"x_min":0,"x_max":278,"o":"m 0 0 l 278 0 l 278 278 l 0 278 l 0 0 "},":":{"ha":555,"x_min":0,"x_max":278,"o":"m 0 278 l 278 278 l 278 555 l 0 555 l 0 278 m 0 833 l 278 833 l 278 1111 l 0 1111 l 0 833 "},";":{"ha":555,"x_min":0,"x_max":278,"o":"m 0 0 l 278 0 l 278 555 l 0 555 l 0 0 m 0 833 l 278 833 l 278 1111 l 0 1111 l 0 833 "},"=":{"ha":1111,"x_min":0,"x_max":833,"o":"m 0 555 l 833 555 l 833 833 l 0 833 l 0 555 m 0 1111 l 833 1111 l 833 1389 l 0 1389 l 0 1111 "},"?":{"ha":1667,"x_min":0,"x_max":1389,"o":"m 555 0 l 833 0 l 833 278 l 555 278 l 555 0 m 555 555 l 833 555 l 833 833 l 555 833 l 555 555 m 833 833 l 1111 833 l 1111 1111 l 833 1111 l 833 833 m 0 1111 l 278 1111 l 278 1389 l 0 1389 l 0 1111 m 1111 1111 l 1389 1111 l 1389 1389 l 1111 1389 l 1111 1111 m 278 1389 l 1111 1389 l 1111 1667 l 278 1667 l 278 1389 "},"A":{"ha":1389,"x_min":0,"x_max":1111,"o":"m 0 0 l 278 0 l 278 555 l 833 555 l 833 0 l 1111 0 l 1111 1389 l 833 1389 l 833 833 l 278 833 l 278 1389 l 0 1389 l 0 0 m 278 1389 l 833 1389 l 833 1667 l 278 1667 l 278 1389 "},"B":{"ha":1389,"x_min":0,"x_max":1111,"o":"m 833 278 l 1111 278 l 1111 833 l 833 833 l 833 278 m 833 1111 l 1111 1111 l 1111 1389 l 833 1389 l 833 1111 m 0 0 l 833 0 l 833 278 l 278 278 l 278 833 l 833 833 l 833 1111 l 278 1111 l 278 1389 l 833 1389 l 833 1667 l 0 1667 l 0 0 "},"C":{"ha":1389,"x_min":0,"x_max":1111,"o":"m 278 0 l 833 0 l 833 278 l 278 278 l 278 0 m 833 278 l 1111 278 l 1111 555 l 833 555 l 833 278 m 0 278 l 278 278 l 278 1389 l 0 1389 l 0 278 m 833 1111 l 1111 1111 l 1111 1389 l 833 1389 l 833 1111 m 278 1389 l 833 1389 l 833 1667 l 278 1667 l 278 1389 "},"D":{"ha":1389,"x_min":0,"x_max":1111,"o":"m 833 278 l 1111 278 l 1111 1389 l 833 1389 l 833 278 m 0 0 l 833 0 l 833 278 l 278 278 l 278 1389 l 833 1389 l 833 1667 l 0 1667 l 0 0 "},"E":{"ha":1389,"x_min":0,"x_max":1111,"o":"m 0 0 l 1111 0 l 1111 278 l 278 278 l 278 833 l 1111 833 l 1111 1111 l 278 1111 l 278 1389 l 1111 1389 l 1111 1667 l 0 1667 l 0 0 "},"F":{"ha":1389,"x_min":0,"x_max":1111,"o":"m 0 0 l 278 0 l 278 833 l 1111 833 l 1111 1111 l 278 1111 l 278 1389 l 1111 1389 l 1111 1667 l 0 1667 l 0 0 "},"G":{"ha":1389,"x_min":0,"x_max":1111,"o":"m 278 0 l 833 0 l 833 278 l 278 278 l 278 0 m 833 278 l 1111 278 l 1111 1111 l 555 1111 l 555 833 l 833 833 l 833 278 m 0 278 l 278 278 l 278 1389 l 0 1389 l 0 278 m 278 1389 l 1111 1389 l 1111 1667 l 278 1667 l 278 1389 "},"H":{"ha":1389,"x_min":0,"x_max":1111,"o":"m 0 0 l 278 0 l 278 833 l 833 833 l 833 0 l 1111 0 l 1111 1667 l 833 1667 l 833 1111 l 278 1111 l 278 1667 l 0 1667 l 0 0 "},"I":{"ha":555,"x_min":0,"x_max":278,"o":"m 0 0 l 278 0 l 278 1667 l 0 1667 l 0 0 "},"J":{"ha":1389,"x_min":0,"x_max":1111,"o":"m 278 0 l 833 0 l 833 278 l 278 278 l 278 0 m 0 278 l 278 278 l 278 555 l 0 555 l 0 278 m 833 278 l 1111 278 l 1111 1667 l 0 1667 l 0 1389 l 833 1389 l 833 278 "},"K":{"ha":1389,"x_min":0,"x_max":1111,"o":"m 833 0 l 1111 0 l 1111 555 l 833 555 l 833 0 m 555 555 l 833 555 l 833 833 l 555 833 l 555 555 m 555 1111 l 833 1111 l 833 1389 l 555 1389 l 555 1111 m 0 0 l 278 0 l 278 833 l 555 833 l 555 1111 l 278 1111 l 278 1667 l 0 1667 l 0 0 m 833 1389 l 1111 1389 l 1111 1667 l 833 1667 l 833 1389 "},"L":{"ha":1389,"x_min":0,"x_max":1111,"o":"m 0 0 l 1111 0 l 1111 278 l 278 278 l 278 1667 l 0 1667 l 0 0 "},"M":{"ha":1667,"x_min":0,"x_max":1389,"o":"m 555 833 l 833 833 l 833 1111 l 555 1111 l 555 833 m 0 0 l 278 0 l 278 1111 l 555 1111 l 555 1389 l 278 1389 l 278 1667 l 0 1667 l 0 0 m 1111 0 l 1389 0 l 1389 1667 l 1111 1667 l 1111 1389 l 833 1389 l 833 1111 l 1111 1111 l 1111 0 "},"N":{"ha":1389,"x_min":0,"x_max":1111,"o":"m 0 0 l 278 0 l 278 1111 l 555 1111 l 555 1389 l 278 1389 l 278 1667 l 0 1667 l 0 0 m 833 0 l 1111 0 l 1111 1667 l 833 1667 l 833 1111 l 555 1111 l 555 833 l 833 833 l 833 0 "},"O":{"ha":1389,"x_min":0,"x_max":1111,"o":"m 278 0 l 833 0 l 833 278 l 278 278 l 278 0 m 0 278 l 278 278 l 278 1389 l 0 1389 l 0 278 m 833 278 l 1111 278 l 1111 1389 l 833 1389 l 833 278 m 278 1389 l 833 1389 l 833 1667 l 278 1667 l 278 1389 "},"P":{"ha":1389,"x_min":0,"x_max":1111,"o":"m 833 1111 l 278 1111 l 278 1389 l 833 1389 l 833 1111 m 0 0 l 278 0 l 278 833 l 1111 833 l 1111 1667 l 0 1667 l 0 0 "},"Q":{"ha":1667,"x_min":0,"x_max":1389,"o":"m 278 0 l 833 0 l 833 278 l 278 278 l 278 0 m 1111 0 l 1389 0 l 1389 278 l 1111 278 l 1111 0 m 833 278 l 1111 278 l 1111 555 l 833 555 l 833 278 m 555 555 l 833 555 l 833 833 l 555 833 l 555 555 m 0 278 l 278 278 l 278 1389 l 0 1389 l 0 278 m 1111 555 l 1389 555 l 1389 1389 l 1111 1389 l 1111 555 m 278 1389 l 1111 1389 l 1111 1667 l 278 1667 l 278 1389 "},"R":{"ha":1389,"x_min":0,"x_max":1111,"o":"m 833 0 l 1111 0 l 1111 833 l 833 833 l 833 0 m 833 1111 l 1111 1111 l 1111 1389 l 833 1389 l 833 1111 m 0 0 l 278 0 l 278 833 l 833 833 l 833 1111 l 278 1111 l 278 1389 l 833 1389 l 833 1667 l 0 1667 l 0 0 "},"S":{"ha":1389,"x_min":0,"x_max":1111,"o":"m 0 0 l 1111 0 l 1111 1111 l 278 1111 l 278 1389 l 1111 1389 l 1111 1667 l 0 1667 l 0 833 l 833 833 l 833 278 l 0 278 l 0 0 "},"T":{"ha":1667,"x_min":0,"x_max":1389,"o":"m 555 0 l 833 0 l 833 1389 l 1389 1389 l 1389 1667 l 0 1667 l 0 1389 l 555 1389 l 555 0 "},"U":{"ha":1389,"x_min":0,"x_max":1111,"o":"m 278 0 l 833 0 l 833 278 l 278 278 l 278 0 m 0 278 l 278 278 l 278 1667 l 0 1667 l 0 278 m 833 278 l 1111 278 l 1111 1667 l 833 1667 l 833 278 "},"V":{"ha":1667,"x_min":0,"x_max":1389,"o":"m 555 0 l 833 0 l 833 278 l 555 278 l 555 0 m 278 278 l 555 278 l 555 555 l 278 555 l 278 278 m 833 278 l 1111 278 l 1111 555 l 833 555 l 833 278 m 0 555 l 278 555 l 278 1667 l 0 1667 l 0 555 m 1111 555 l 1389 555 l 1389 1667 l 1111 1667 l 1111 555 "},"W":{"ha":1667,"x_min":0,"x_max":1389,"o":"m 278 0 l 555 0 l 555 278 l 278 278 l 278 0 m 833 0 l 1111 0 l 1111 278 l 833 278 l 833 0 m 555 278 l 833 278 l 833 833 l 555 833 l 555 278 m 0 278 l 278 278 l 278 1667 l 0 1667 l 0 278 m 1111 278 l 1389 278 l 1389 1667 l 1111 1667 l 1111 278 "},"X":{"ha":1667,"x_min":0,"x_max":1389,"o":"m 0 0 l 278 0 l 278 278 l 0 278 l 0 0 m 1111 0 l 1389 0 l 1389 278 l 1111 278 l 1111 0 m 278 278 l 555 278 l 555 555 l 278 555 l 278 278 m 833 278 l 1111 278 l 1111 555 l 833 555 l 833 278 m 555 555 l 833 555 l 833 833 l 555 833 l 555 555 m 278 833 l 555 833 l 555 1111 l 278 1111 l 278 833 m 833 833 l 1111 833 l 1111 1111 l 833 1111 l 833 833 m 0 1111 l 278 1111 l 278 1667 l 0 1667 l 0 1111 m 1111 1111 l 1389 1111 l 1389 1667 l 1111 1667 l 1111 1111 "},"Y":{"ha":1667,"x_min":0,"x_max":1389,"o":"m 555 0 l 833 0 l 833 833 l 555 833 l 555 0 m 278 833 l 555 833 l 555 1111 l 278 1111 l 278 833 m 833 833 l 1111 833 l 1111 1111 l 833 1111 l 833 833 m 0 1111 l 278 1111 l 278 1667 l 0 1667 l 0 1111 m 1111 1111 l 1389 1111 l 1389 1667 l 1111 1667 l 1111 1111 "},"Z":{"ha":1389,"x_min":0,"x_max":1111,"o":"m 0 0 l 1111 0 l 1111 278 l 278 278 l 278 833 l 0 833 l 0 0 m 278 833 l 555 833 l 555 1111 l 278 1111 l 278 833 m 555 1111 l 833 1111 l 833 1389 l 1111 1389 l 1111 1667 l 0 1667 l 0 1389 l 555 1389 l 555 1111 "},"[":{"ha":1111,"x_min":0,"x_max":833,"o":"m 0 0 l 833 0 l 833 278 l 278 278 l 278 1389 l 833 1389 l 833 1667 l 0 1667 l 0 0 "},"]":{"ha":1111,"x_min":0,"x_max":833,"o":"m 0 0 l 833 0 l 833 1667 l 0 1667 l 0 1389 l 555 1389 l 555 278 l 0 278 l 0 0 "},"_":{"ha":1389,"x_min":0,"x_max":1111,"o":"m 0 0 l 1111 0 l 1111 278 l 0 278 l 0 0 "},"a":{"ha":1389,"x_min":0,"x_max":1111,"o":"m 833 278 l 278 278 l 278 555 l 833 555 l 833 278 m 0 0 l 1111 0 l 1111 1111 l 833 1111 l 833 833 l 0 833 l 0 0 m 0 1111 l 833 1111 l 833 1389 l 0 1389 l 0 1111 "},"b":{"ha":1389,"x_min":0,"x_max":1111,"o":"m 833 278 l 278 278 l 278 555 l 833 555 l 833 278 m 0 0 l 1111 0 l 1111 833 l 278 833 l 278 1389 l 0 1389 l 0 0 "},"c":{"ha":1389,"x_min":0,"x_max":1111,"o":"m 0 0 l 1111 0 l 1111 278 l 278 278 l 278 1111 l 1111 1111 l 1111 1389 l 0 1389 l 0 0 "},"d":{"ha":1389,"x_min":0,"x_max":1111,"o":"m 833 278 l 278 278 l 278 555 l 833 555 l 833 278 m 0 0 l 1111 0 l 1111 1389 l 833 1389 l 833 833 l 0 833 l 0 0 "},"e":{"ha":1389,"x_min":0,"x_max":1111,"o":"m 833 833 l 278 833 l 278 1111 l 833 1111 l 833 833 m 0 0 l 1111 0 l 1111 278 l 278 278 l 278 555 l 1111 555 l 1111 1389 l 0 1389 l 0 0 "},"f":{"ha":1389,"x_min":0,"x_max":1111,"o":"m 0 0 l 278 0 l 278 555 l 1111 555 l 1111 833 l 278 833 l 278 1111 l 1111 1111 l 1111 1389 l 0 1389 l 0 0 "},"g":{"ha":1389,"x_min":0,"x_max":1111,"o":"m 0 0 l 1111 0 l 1111 833 l 555 833 l 555 555 l 833 555 l 833 278 l 278 278 l 278 1111 l 1111 1111 l 1111 1389 l 0 1389 l 0 0 "},"h":{"ha":1389,"x_min":0,"x_max":1111,"o":"m 0 0 l 278 0 l 278 555 l 833 555 l 833 0 l 1111 0 l 1111 833 l 278 833 l 278 1389 l 0 1389 l 0 0 "},"i":{"ha":555,"x_min":0,"x_max":278,"o":"m 0 0 l 278 0 l 278 833 l 0 833 l 0 0 m 0 1111 l 278 1111 l 278 1389 l 0 1389 l 0 1111 "},"j":{"ha":1111,"x_min":0,"x_max":833,"o":"m 0 0 l 833 0 l 833 833 l 555 833 l 555 278 l 0 278 l 0 0 m 555 1111 l 833 1111 l 833 1389 l 555 1389 l 555 1111 "},"k":{"ha":1389,"x_min":0,"x_max":1111,"o":"m 833 0 l 1111 0 l 1111 278 l 833 278 l 833 0 m 833 555 l 1111 555 l 1111 833 l 833 833 l 833 555 m 0 0 l 278 0 l 278 278 l 833 278 l 833 555 l 278 555 l 278 1389 l 0 1389 l 0 0 "},"l":{"ha":555,"x_min":0,"x_max":278,"o":"m 0 0 l 278 0 l 278 1389 l 0 1389 l 0 0 "},"m":{"ha":1667,"x_min":0,"x_max":1389,"o":"m 555 0 l 833 0 l 833 833 l 555 833 l 555 0 m 0 0 l 278 0 l 278 833 l 555 833 l 555 1111 l 278 1111 l 278 1389 l 0 1389 l 0 0 m 1111 0 l 1389 0 l 1389 1389 l 1111 1389 l 1111 1111 l 833 1111 l 833 833 l 1111 833 l 1111 0 "},"n":{"ha":1389,"x_min":0,"x_max":1111,"o":"m 0 0 l 278 0 l 278 833 l 555 833 l 555 1111 l 278 1111 l 278 1389 l 0 1389 l 0 0 m 833 0 l 1111 0 l 1111 1389 l 833 1389 l 833 833 l 555 833 l 555 555 l 833 555 l 833 0 "},"o":{"ha":1389,"x_min":0,"x_max":1111,"o":"m 278 0 l 833 0 l 833 278 l 278 278 l 278 0 m 0 278 l 278 278 l 278 1111 l 0 1111 l 0 278 m 833 278 l 1111 278 l 1111 1111 l 833 1111 l 833 278 m 278 1111 l 833 1111 l 833 1389 l 278 1389 l 278 1111 "},"p":{"ha":1389,"x_min":0,"x_max":1111,"o":"m 833 833 l 278 833 l 278 1111 l 833 1111 l 833 833 m 0 0 l 278 0 l 278 555 l 1111 555 l 1111 1389 l 0 1389 l 0 0 "},"q":{"ha":1389,"x_min":0,"x_max":1111,"o":"m 833 833 l 278 833 l 278 1111 l 833 1111 l 833 833 m 833 0 l 1111 0 l 1111 1389 l 0 1389 l 0 555 l 833 555 l 833 0 "},"r":{"ha":1389,"x_min":0,"x_max":1111,"o":"m 0 0 l 278 0 l 278 1111 l 1111 1111 l 1111 1389 l 0 1389 l 0 0 "},"s":{"ha":1389,"x_min":0,"x_max":1111,"o":"m 0 0 l 1111 0 l 1111 833 l 278 833 l 278 1111 l 1111 1111 l 1111 1389 l 0 1389 l 0 555 l 833 555 l 833 278 l 0 278 l 0 0 "},"t":{"ha":1389,"x_min":0,"x_max":1111,"o":"m 0 0 l 1111 0 l 1111 278 l 278 278 l 278 555 l 1111 555 l 1111 833 l 278 833 l 278 1389 l 0 1389 l 0 0 "},"u":{"ha":1389,"x_min":0,"x_max":1111,"o":"m 278 0 l 833 0 l 833 278 l 278 278 l 278 0 m 0 278 l 278 278 l 278 1389 l 0 1389 l 0 278 m 833 278 l 1111 278 l 1111 1389 l 833 1389 l 833 278 "},"v":{"ha":1667,"x_min":0,"x_max":1389,"o":"m 555 0 l 833 0 l 833 278 l 555 278 l 555 0 m 278 278 l 555 278 l 555 555 l 278 555 l 278 278 m 833 278 l 1111 278 l 1111 555 l 833 555 l 833 278 m 0 555 l 278 555 l 278 1389 l 0 1389 l 0 555 m 1111 555 l 1389 555 l 1389 1389 l 1111 1389 l 1111 555 "},"w":{"ha":1667,"x_min":0,"x_max":1389,"o":"m 278 0 l 555 0 l 555 278 l 278 278 l 278 0 m 833 0 l 1111 0 l 1111 278 l 833 278 l 833 0 m 555 278 l 833 278 l 833 833 l 555 833 l 555 278 m 0 278 l 278 278 l 278 1389 l 0 1389 l 0 278 m 1111 278 l 1389 278 l 1389 1389 l 1111 1389 l 1111 278 "},"x":{"ha":1667,"x_min":0,"x_max":1389,"o":"m 0 0 l 278 0 l 278 278 l 0 278 l 0 0 m 1111 0 l 1389 0 l 1389 278 l 1111 278 l 1111 0 m 278 278 l 555 278 l 555 555 l 278 555 l 278 278 m 833 278 l 1111 278 l 1111 555 l 833 555 l 833 278 m 555 555 l 833 555 l 833 833 l 555 833 l 555 555 m 278 833 l 555 833 l 555 1111 l 278 1111 l 278 833 m 833 833 l 1111 833 l 1111 1111 l 833 1111 l 833 833 m 0 1111 l 278 1111 l 278 1389 l 0 1389 l 0 1111 m 1111 1111 l 1389 1111 l 1389 1389 l 1111 1389 l 1111 1111 "},"y":{"ha":1389,"x_min":0,"x_max":1111,"o":"m 0 0 l 1111 0 l 1111 1389 l 833 1389 l 833 833 l 278 833 l 278 1389 l 0 1389 l 0 555 l 833 555 l 833 278 l 0 278 l 0 0 "},"z":{"ha":1389,"x_min":0,"x_max":1111,"o":"m 0 0 l 1111 0 l 1111 278 l 278 278 l 278 555 l 0 555 l 0 0 m 278 555 l 555 555 l 555 833 l 278 833 l 278 555 m 555 833 l 833 833 l 833 1111 l 1111 1111 l 1111 1389 l 0 1389 l 0 1111 l 555 1111 l 555 833 "},"|":{"ha":555,"x_min":0,"x_max":278,"o":"m 0 0 l 278 0 l 278 1667 l 0 1667 l 0 0 "},"¡":{"ha":555,"x_min":0,"x_max":278,"o":"m 0 0 l 278 0 l 278 1111 l 0 1111 l 0 0 m 0 1389 l 278 1389 l 278 1667 l 0 1667 l 0 1389 "},"µ":{"ha":1389,"x_min":0,"x_max":1111,"o":"m 0 -555 l 278 -555 l 278 0 l 833 0 l 833 278 l 278 278 l 278 1389 l 0 1389 l 0 -555 m 833 278 l 1111 278 l 1111 1389 l 833 1389 l 833 278 "},"¿":{"ha":1389,"x_min":0,"x_max":1111,"o":"m 278 0 l 833 0 l 833 278 l 278 278 l 278 0 m 0 278 l 278 278 l 278 555 l 0 555 l 0 278 m 833 278 l 1111 278 l 1111 555 l 833 555 l 833 278 m 278 555 l 555 555 l 555 833 l 278 833 l 278 555 m 555 833 l 833 833 l 833 1111 l 555 1111 l 555 833 m 555 1389 l 833 1389 l 833 1667 l 555 1667 l 555 1389 "},"Æ":{"ha":2222,"x_min":0,"x_max":1944,"o":"m 0 0 l 278 0 l 278 555 l 833 555 l 833 0 l 1944 0 l 1944 278 l 1111 278 l 1111 833 l 1944 833 l 1944 1111 l 1111 1111 l 1111 1389 l 1944 1389 l 1944 1667 l 278 1667 l 278 1389 l 833 1389 l 833 833 l 278 833 l 278 1389 l 0 1389 l 0 0 "},"Þ":{"ha":1389,"x_min":0,"x_max":1111,"o":"m 833 833 l 278 833 l 278 1111 l 833 1111 l 833 833 m 0 0 l 278 0 l 278 555 l 1111 555 l 1111 1389 l 278 1389 l 278 1667 l 0 1667 l 0 0 "},"þ":{"ha":1389,"x_min":0,"x_max":1111,"o":"m 833 555 l 278 555 l 278 833 l 833 833 l 833 555 m 0 0 l 278 0 l 278 278 l 1111 278 l 1111 1111 l 278 1111 l 278 1389 l 0 1389 l 0 0 "},"Ē":{"ha":1389,"x_min":0,"x_max":1111,"o":"m 0 0 l 1111 0 l 1111 278 l 278 278 l 278 833 l 1111 833 l 1111 1111 l 278 1111 l 278 1389 l 1111 1389 l 1111 1667 l 0 1667 l 0 0 m 0 1944 l 1111 1944 l 1111 2222 l 0 2222 l 0 1944 "},"ē":{"ha":1389,"x_min":0,"x_max":1111,"o":"m 833 833 l 278 833 l 278 1111 l 833 1111 l 833 833 m 0 0 l 1111 0 l 1111 278 l 278 278 l 278 555 l 1111 555 l 1111 1389 l 0 1389 l 0 0 m 0 1667 l 1111 1667 l 1111 1944 l 0 1944 l 0 1667 "},"İ":{"ha":555,"x_min":0,"x_max":278,"o":"m 0 0 l 278 0 l 278 1667 l 0 1667 l 0 0 m 0 1944 l 278 1944 l 278 2222 l 0 2222 l 0 1944 "},"ı":{"ha":555,"x_min":0,"x_max":278,"o":"m 0 0 l 278 0 l 278 833 l 0 833 l 0 0 "},"Ɛ":{"ha":1389,"x_min":0,"x_max":1111,"o":"m 278 0 l 1111 0 l 1111 278 l 278 278 l 278 0 m 0 278 l 278 278 l 278 555 l 0 555 l 0 278 m 278 555 l 1111 555 l 1111 833 l 278 833 l 278 555 m 0 833 l 278 833 l 278 1111 l 0 1111 l 0 833 m 278 1111 l 1111 1111 l 1111 1389 l 278 1389 l 278 1111 "},"Ɵ":{"ha":1389,"x_min":0,"x_max":1111,"o":"m 278 0 l 833 0 l 833 278 l 278 278 l 278 0 m 0 278 l 278 278 l 278 833 l 833 833 l 833 278 l 1111 278 l 1111 1389 l 833 1389 l 833 1111 l 278 1111 l 278 1389 l 0 1389 l 0 278 m 278 1389 l 833 1389 l 833 1667 l 278 1667 l 278 1389 "},"Ơ":{"ha":1667,"x_min":0,"x_max":1389,"o":"m 278 0 l 833 0 l 833 278 l 278 278 l 278 0 m 0 278 l 278 278 l 278 1389 l 0 1389 l 0 278 m 833 278 l 1111 278 l 1111 1389 l 833 1389 l 833 278 m 278 1389 l 833 1389 l 833 1667 l 278 1667 l 278 1389 m 1111 1389 l 1389 1389 l 1389 1667 l 1111 1667 l 1111 1389 "},"ơ":{"ha":1667,"x_min":0,"x_max":1389,"o":"m 278 0 l 833 0 l 833 278 l 278 278 l 278 0 m 0 278 l 278 278 l 278 1111 l 0 1111 l 0 278 m 833 278 l 1111 278 l 1111 1111 l 833 1111 l 833 278 m 278 1111 l 833 1111 l 833 1389 l 278 1389 l 278 1111 m 1111 1111 l 1389 1111 l 1389 1389 l 1111 1389 l 1111 1111 "},"Ƥ":{"ha":1944,"x_min":0,"x_max":1667,"o":"m 1389 1111 l 833 1111 l 833 1389 l 1389 1389 l 1389 1111 m 555 0 l 833 0 l 833 833 l 1667 833 l 1667 1667 l 0 1667 l 0 1111 l 278 1111 l 278 1389 l 555 1389 l 555 0 "},"ǝ":{"ha":1389,"x_min":0,"x_max":1111,"o":"m 833 278 l 278 278 l 278 555 l 833 555 l 833 278 m 0 0 l 1111 0 l 1111 1389 l 0 1389 l 0 1111 l 833 1111 l 833 833 l 0 833 l 0 0 "},"Ǳ":{"ha":2777,"x_min":0,"x_max":2500,"o":"m 1389 0 l 2500 0 l 2500 278 l 1667 278 l 1667 833 l 1389 833 l 1389 0 m 1667 833 l 1944 833 l 1944 1111 l 1667 1111 l 1667 833 m 833 278 l 1111 278 l 1111 1389 l 833 1389 l 833 278 m 0 0 l 833 0 l 833 278 l 278 278 l 278 1389 l 833 1389 l 833 1667 l 0 1667 l 0 0 m 1944 1111 l 2222 1111 l 2222 1389 l 2500 1389 l 2500 1667 l 1389 1667 l 1389 1389 l 1944 1389 l 1944 1111 "},"ǲ":{"ha":2777,"x_min":0,"x_max":2500,"o":"m 1389 0 l 2500 0 l 2500 278 l 1667 278 l 1667 555 l 1389 555 l 1389 0 m 1667 555 l 1944 555 l 1944 833 l 1667 833 l 1667 555 m 833 278 l 1111 278 l 1111 1389 l 833 1389 l 833 278 m 1944 833 l 2222 833 l 2222 1111 l 2500 1111 l 2500 1389 l 1389 1389 l 1389 1111 l 1944 1111 l 1944 833 m 0 0 l 833 0 l 833 278 l 278 278 l 278 1389 l 833 1389 l 833 1667 l 0 1667 l 0 0 "},"ǳ":{"ha":2777,"x_min":0,"x_max":2500,"o":"m 833 278 l 278 278 l 278 555 l 833 555 l 833 278 m 1389 0 l 2500 0 l 2500 278 l 1667 278 l 1667 555 l 1389 555 l 1389 0 m 1667 555 l 1944 555 l 1944 833 l 1667 833 l 1667 555 m 0 0 l 1111 0 l 1111 1389 l 833 1389 l 833 833 l 0 833 l 0 0 m 1944 833 l 2222 833 l 2222 1111 l 2500 1111 l 2500 1389 l 1389 1389 l 1389 1111 l 1944 1111 l 1944 833 "},"Ƚ":{"ha":1667,"x_min":0,"x_max":1389,"o":"m 278 0 l 1389 0 l 1389 278 l 555 278 l 555 833 l 1111 833 l 1111 1111 l 555 1111 l 555 1667 l 278 1667 l 278 1111 l 0 1111 l 0 833 l 278 833 l 278 0 "},"Α":{"ha":1389,"x_min":0,"x_max":1111,"o":"m 0 0 l 278 0 l 278 555 l 833 555 l 833 0 l 1111 0 l 1111 1389 l 833 1389 l 833 833 l 278 833 l 278 1389 l 0 1389 l 0 0 m 278 1389 l 833 1389 l 833 1667 l 278 1667 l 278 1389 "},"Њ":{"ha":2222,"x_min":0,"x_max":1944,"o":"m 1667 278 l 1111 278 l 1111 555 l 1667 555 l 1667 278 m 0 0 l 278 0 l 278 833 l 833 833 l 833 0 l 1944 0 l 1944 833 l 1111 833 l 1111 1667 l 833 1667 l 833 1111 l 278 1111 l 278 1667 l 0 1667 l 0 0 "},"А":{"ha":1389,"x_min":0,"x_max":1111,"o":"m 0 0 l 278 0 l 278 555 l 833 555 l 833 0 l 1111 0 l 1111 1389 l 833 1389 l 833 833 l 278 833 l 278 1389 l 0 1389 l 0 0 m 278 1389 l 833 1389 l 833 1667 l 278 1667 l 278 1389 "},"Б":{"ha":1389,"x_min":0,"x_max":1111,"o":"m 833 278 l 1111 278 l 1111 833 l 833 833 l 833 278 m 0 0 l 833 0 l 833 278 l 278 278 l 278 833 l 833 833 l 833 1111 l 278 1111 l 278 1389 l 1111 1389 l 1111 1667 l 0 1667 l 0 0 "},"В":{"ha":1389,"x_min":0,"x_max":1111,"o":"m 833 278 l 1111 278 l 1111 833 l 833 833 l 833 278 m 833 1111 l 1111 1111 l 1111 1389 l 833 1389 l 833 1111 m 0 0 l 833 0 l 833 278 l 278 278 l 278 833 l 833 833 l 833 1111 l 278 1111 l 278 1389 l 833 1389 l 833 1667 l 0 1667 l 0 0 "},"Г":{"ha":1389,"x_min":0,"x_max":1111,"o":"m 0 0 l 278 0 l 278 1389 l 1111 1389 l 1111 1667 l 0 1667 l 0 0 "},"Е":{"ha":1389,"x_min":0,"x_max":1111,"o":"m 0 0 l 1111 0 l 1111 278 l 278 278 l 278 833 l 1111 833 l 1111 1111 l 278 1111 l 278 1389 l 1111 1389 l 1111 1667 l 0 1667 l 0 0 "},"З":{"ha":1389,"x_min":0,"x_max":1111,"o":"m 0 0 l 833 0 l 833 278 l 0 278 l 0 0 m 833 278 l 1111 278 l 1111 833 l 833 833 l 833 278 m 0 833 l 833 833 l 833 1111 l 0 1111 l 0 833 m 833 1111 l 1111 1111 l 1111 1389 l 833 1389 l 833 1111 m 0 1389 l 833 1389 l 833 1667 l 0 1667 l 0 1389 "},"И":{"ha":1389,"x_min":0,"x_max":1111,"o":"m 0 0 l 278 0 l 278 833 l 555 833 l 555 1111 l 278 1111 l 278 1667 l 0 1667 l 0 0 m 833 0 l 1111 0 l 1111 1667 l 833 1667 l 833 1389 l 555 1389 l 555 1111 l 833 1111 l 833 0 "},"М":{"ha":1667,"x_min":0,"x_max":1389,"o":"m 555 833 l 833 833 l 833 1111 l 555 1111 l 555 833 m 0 0 l 278 0 l 278 1111 l 555 1111 l 555 1389 l 278 1389 l 278 1667 l 0 1667 l 0 0 m 1111 0 l 1389 0 l 1389 1667 l 1111 1667 l 1111 1389 l 833 1389 l 833 1111 l 1111 1111 l 1111 0 "},"Н":{"ha":1389,"x_min":0,"x_max":1111,"o":"m 0 0 l 278 0 l 278 833 l 833 833 l 833 0 l 1111 0 l 1111 1667 l 833 1667 l 833 1111 l 278 1111 l 278 1667 l 0 1667 l 0 0 "},"О":{"ha":1389,"x_min":0,"x_max":1111,"o":"m 278 0 l 833 0 l 833 278 l 278 278 l 278 0 m 0 278 l 278 278 l 278 1389 l 0 1389 l 0 278 m 833 278 l 1111 278 l 1111 1389 l 833 1389 l 833 278 m 278 1389 l 833 1389 l 833 1667 l 278 1667 l 278 1389 "},"П":{"ha":1389,"x_min":0,"x_max":1111,"o":"m 0 0 l 278 0 l 278 1389 l 833 1389 l 833 0 l 1111 0 l 1111 1667 l 0 1667 l 0 0 "},"Р":{"ha":1389,"x_min":0,"x_max":1111,"o":"m 833 1111 l 1111 1111 l 1111 1389 l 833 1389 l 833 1111 m 0 0 l 278 0 l 278 833 l 833 833 l 833 1111 l 278 1111 l 278 1389 l 833 1389 l 833 1667 l 0 1667 l 0 0 "},"С":{"ha":1389,"x_min":0,"x_max":1111,"o":"m 278 0 l 833 0 l 833 278 l 278 278 l 278 0 m 833 278 l 1111 278 l 1111 555 l 833 555 l 833 278 m 0 278 l 278 278 l 278 1389 l 0 1389 l 0 278 m 833 1111 l 1111 1111 l 1111 1389 l 833 1389 l 833 1111 m 278 1389 l 833 1389 l 833 1667 l 278 1667 l 278 1389 "},"Т":{"ha":1667,"x_min":0,"x_max":1389,"o":"m 555 0 l 833 0 l 833 1389 l 1389 1389 l 1389 1667 l 0 1667 l 0 1389 l 555 1389 l 555 0 "},"Ш":{"ha":1667,"x_min":0,"x_max":1389,"o":"m 0 0 l 1389 0 l 1389 1667 l 1111 1667 l 1111 278 l 833 278 l 833 1667 l 555 1667 l 555 278 l 278 278 l 278 1667 l 0 1667 l 0 0 "},"Я":{"ha":1389,"x_min":0,"x_max":1111,"o":"m 0 0 l 278 0 l 278 833 l 0 833 l 0 0 m 0 1111 l 278 1111 l 278 1389 l 0 1389 l 0 1111 m 833 0 l 1111 0 l 1111 1667 l 278 1667 l 278 1389 l 833 1389 l 833 1111 l 278 1111 l 278 833 l 833 833 l 833 0 "},"а":{"ha":1389,"x_min":0,"x_max":1111,"o":"m 833 278 l 278 278 l 278 555 l 833 555 l 833 278 m 0 0 l 1111 0 l 1111 1111 l 833 1111 l 833 833 l 0 833 l 0 0 m 0 1111 l 833 1111 l 833 1389 l 0 1389 l 0 1111 "},"в":{"ha":1389,"x_min":0,"x_max":1111,"o":"m 833 278 l 1111 278 l 1111 555 l 833 555 l 833 278 m 833 833 l 1111 833 l 1111 1111 l 833 1111 l 833 833 m 0 0 l 833 0 l 833 278 l 278 278 l 278 555 l 833 555 l 833 833 l 278 833 l 278 1111 l 833 1111 l 833 1389 l 0 1389 l 0 0 "},"г":{"ha":1389,"x_min":0,"x_max":1111,"o":"m 0 0 l 278 0 l 278 1111 l 1111 1111 l 1111 1389 l 0 1389 l 0 0 "},"е":{"ha":1389,"x_min":0,"x_max":1111,"o":"m 833 833 l 278 833 l 278 1111 l 833 1111 l 833 833 m 0 0 l 1111 0 l 1111 278 l 278 278 l 278 555 l 1111 555 l 1111 1389 l 0 1389 l 0 0 "},"з":{"ha":1389,"x_min":0,"x_max":1111,"o":"m 0 0 l 833 0 l 833 278 l 0 278 l 0 0 m 833 278 l 1111 278 l 1111 555 l 833 555 l 833 278 m 0 555 l 833 555 l 833 833 l 0 833 l 0 555 m 833 833 l 1111 833 l 1111 1111 l 833 1111 l 833 833 m 0 1111 l 833 1111 l 833 1389 l 0 1389 l 0 1111 "},"и":{"ha":1389,"x_min":0,"x_max":1111,"o":"m 0 0 l 278 0 l 278 555 l 555 555 l 555 833 l 278 833 l 278 1389 l 0 1389 l 0 0 m 833 0 l 1111 0 l 1111 1389 l 833 1389 l 833 1111 l 555 1111 l 555 833 l 833 833 l 833 0 "},"м":{"ha":1667,"x_min":0,"x_max":1389,"o":"m 555 555 l 833 555 l 833 833 l 555 833 l 555 555 m 0 0 l 278 0 l 278 833 l 555 833 l 555 1111 l 278 1111 l 278 1389 l 0 1389 l 0 0 m 1111 0 l 1389 0 l 1389 1389 l 1111 1389 l 1111 1111 l 833 1111 l 833 833 l 1111 833 l 1111 0 "},"н":{"ha":1389,"x_min":0,"x_max":1111,"o":"m 0 0 l 278 0 l 278 555 l 833 555 l 833 0 l 1111 0 l 1111 1389 l 833 1389 l 833 833 l 278 833 l 278 1389 l 0 1389 l 0 0 "},"о":{"ha":1389,"x_min":0,"x_max":1111,"o":"m 278 0 l 833 0 l 833 278 l 278 278 l 278 0 m 0 278 l 278 278 l 278 1111 l 0 1111 l 0 278 m 833 278 l 1111 278 l 1111 1111 l 833 1111 l 833 278 m 278 1111 l 833 1111 l 833 1389 l 278 1389 l 278 1111 "},"п":{"ha":1389,"x_min":0,"x_max":1111,"o":"m 0 0 l 278 0 l 278 1111 l 833 1111 l 833 0 l 1111 0 l 1111 1389 l 0 1389 l 0 0 "},"т":{"ha":1667,"x_min":0,"x_max":1389,"o":"m 555 0 l 833 0 l 833 1111 l 1389 1111 l 1389 1389 l 0 1389 l 0 1111 l 555 1111 l 555 0 "},"њ":{"ha":2222,"x_min":0,"x_max":1944,"o":"m 1667 278 l 1111 278 l 1111 555 l 1667 555 l 1667 278 m 0 0 l 278 0 l 278 555 l 833 555 l 833 0 l 1944 0 l 1944 833 l 1111 833 l 1111 1389 l 833 1389 l 833 833 l 278 833 l 278 1389 l 0 1389 l 0 0 "},"™":{"ha":2500,"x_min":0,"x_max":2222,"o":"m 1389 833 l 1667 833 l 1667 1111 l 1389 1111 l 1389 833 m 278 833 l 555 833 l 555 1389 l 833 1389 l 833 833 l 1111 833 l 1111 1111 l 1389 1111 l 1389 1389 l 1111 1389 l 1111 1667 l 0 1667 l 0 1389 l 278 1389 l 278 833 m 1944 833 l 2222 833 l 2222 1667 l 1944 1667 l 1944 1389 l 1667 1389 l 1667 1111 l 1944 1111 l 1944 833 "},"ﬁ":{"ha":1944,"x_min":0,"x_max":1667,"o":"m 0 0 l 278 0 l 278 555 l 1389 555 l 1389 0 l 1667 0 l 1667 833 l 278 833 l 278 1111 l 1111 1111 l 1111 1389 l 0 1389 l 0 0 m 1389 1111 l 1667 1111 l 1667 1389 l 1389 1389 l 1389 1111 "},"ﬂ":{"ha":1944,"x_min":0,"x_max":1667,"o":"m 0 0 l 278 0 l 278 555 l 1111 555 l 1111 833 l 278 833 l 278 1111 l 1389 1111 l 1389 0 l 1667 0 l 1667 1389 l 0 1389 l 0 0 "}}}
